<?xml version="1.0" encoding="UTF-8" standalone="no"?>
<!-- Created with Inkscape (http://www.inkscape.org/) -->

<svg
   version="1.1"
   id="svg2"
   width="375.43332"
   height="174.98933"
   viewBox="0 0 375.43332 174.98933"
   sodipodi:docname="4-銀河_logo(轉外框)_AI檔_測試1120702.ai"
   xmlns:inkscape="http://www.inkscape.org/namespaces/inkscape"
   xmlns:sodipodi="http://sodipodi.sourceforge.net/DTD/sodipodi-0.dtd"
   xmlns="http://www.w3.org/2000/svg"
   xmlns:svg="http://www.w3.org/2000/svg">
  <defs
     id="defs6">
    <clipPath
       clipPathUnits="userSpaceOnUse"
       id="clipPath16">
      <path
         d="M 0,131.242 H 281.575 V 0 H 0 Z"
         id="path14" />
    </clipPath>
  </defs>
  <sodipodi:namedview
     id="namedview4"
     pagecolor="#ffffff"
     bordercolor="#000000"
     borderopacity="0.25"
     inkscape:showpageshadow="2"
     inkscape:pageopacity="0.0"
     inkscape:pagecheckerboard="0"
     inkscape:deskcolor="#d1d1d1" />
  <g
     id="g8"
     inkscape:groupmode="layer"
     inkscape:label="4-銀河_logo(轉外框)_AI檔_測試1120702"
     transform="matrix(1.3333333,0,0,-1.3333333,0,174.98933)">
    <g
       id="g10">
      <g
         id="g12"
         clip-path="url(#clipPath16)">
        <path
           d="m 12.989,32.665 h 5.024 v 1.779 h -5.024 z m 0,3.913 h 5.024 v 1.734 h -5.024 z m 8.248,-8.293 c -0.934,-0.733 -2.001,-1.489 -2.957,-2.089 0.867,-1.29 1.934,-2.29 3.29,-2.979 -0.6,-0.512 -1.423,-1.557 -1.823,-2.268 -2.979,1.823 -4.624,5.247 -5.602,9.448 h -1.156 v -6.135 l 2.89,0.755 c 0,-0.689 0.111,-1.756 0.222,-2.312 -4.402,-1.334 -5.202,-1.689 -5.714,-2.067 -0.111,0.644 -0.511,1.734 -0.867,2.245 0.445,0.2 0.912,0.556 0.912,1.423 v 16.296 h 10.16 V 30.397 h -4.18 c 0.223,-0.799 0.49,-1.534 0.801,-2.267 0.844,0.644 1.734,1.4 2.29,2.023 z M 8.075,35.889 C 7.386,36.6 6.519,37.423 5.652,38.156 5.052,37.356 4.407,36.6 3.718,35.889 Z M 3.14,29.019 c 0.4,-1.222 0.778,-2.823 0.911,-3.868 L 2.25,24.64 C 2.161,25.684 1.783,27.308 1.406,28.553 Z M 9.609,23.283 C 6.741,22.527 3.673,21.794 1.317,21.193 l -0.6,2.557 c 0.933,0.178 2.156,0.4 3.468,0.644 v 5.381 H 1.116 v 2.29 h 3.069 v 1.578 H 2.317 v 0.956 C 2.028,34.354 1.739,34.133 1.45,33.91 c -0.155,0.556 -0.689,1.957 -1.045,2.579 1.779,1.2 3.668,3.069 4.758,5.047 L 7.297,40.735 C 7.208,40.514 7.075,40.291 6.942,40.068 c 1.289,-1 2.601,-2.178 3.357,-3.023 L 8.72,35.178 8.431,35.511 V 33.643 H 6.474 v -1.578 h 2.935 v -2.29 H 6.474 v -4.891 l 1.49,0.311 -1.378,0.401 c 0.289,1.022 0.667,2.645 0.822,3.734 L 9.343,28.842 C 8.942,27.597 8.498,26.174 8.142,25.24 l 1.267,0.267 z"
           style="fill:#0888ca;fill-opacity:1;fill-rule:nonzero;stroke:none"
           id="path18" />
        <path
           d="m 39.069,29.397 h 2.535 v 3.49 h -2.535 z m 0,-2.356 V 25.573 H 36.69 v 9.671 h 7.336 V 27.041 Z M 50.207,37.6 H 48.584 V 24.061 c 0,-1.623 -0.378,-2.401 -1.423,-2.845 -1.09,-0.445 -2.734,-0.467 -5.202,-0.467 -0.134,0.778 -0.623,2.045 -1.023,2.779 1.756,-0.111 3.735,-0.089 4.269,-0.089 0.533,0.022 0.733,0.178 0.733,0.667 V 37.6 H 35.756 v 1.179 l -1.512,-2.046 c -0.889,0.667 -2.757,1.78 -4.046,2.535 l 1.512,1.89 c 1.244,-0.623 3.09,-1.623 4.046,-2.267 V 40.18 H 50.207 Z M 29.798,22.75 c 1.2,1.667 2.89,4.424 4.201,7.003 l 1.957,-1.779 c -1.178,-2.312 -2.579,-4.846 -3.913,-7.002 z m 3.557,8.003 c -0.912,0.645 -2.823,1.69 -4.157,2.401 l 1.444,1.957 c 1.223,-0.6 3.202,-1.556 4.18,-2.157 z"
           style="fill:#0888ca;fill-opacity:1;fill-rule:nonzero;stroke:none"
           id="path20" />
        <g
           id="g22"
           transform="translate(77.799,32.4213)">
          <path
             d="m 0,0 c 0,-1.134 -0.222,-1.668 -1.022,-2.023 -0.779,-0.333 -1.89,-0.356 -3.402,-0.356 -0.134,0.645 -0.489,1.512 -0.778,2.09 1,-0.045 2.067,-0.045 2.379,-0.023 0.311,0 0.423,0.089 0.423,0.378 V 8.87 H 0 Z m -6.67,-5.002 c 0.445,-0.689 1.001,-1.268 1.602,-1.801 1.022,0.533 2.133,1.2 2.956,1.801 z m 2.313,5.624 h -2.356 v 7.337 h 2.356 z m -10.138,4.425 v 0.889 h -2.134 C -16.808,5.625 -17.008,5.313 -17.207,5.047 Z M 0.178,-6.114 c -1.045,-0.689 -2.268,-1.378 -3.402,-1.912 1.29,-0.622 2.78,-1.067 4.536,-1.312 -0.489,-0.511 -1.112,-1.467 -1.423,-2.09 -4.491,0.867 -7.27,2.868 -8.937,6.292 -0.89,-0.733 -2.001,-1.356 -3.202,-1.889 v -1.979 l 4.136,0.845 c -0.112,-0.578 -0.178,-1.512 -0.178,-1.979 -5.292,-1.201 -6.069,-1.423 -6.515,-1.712 l -0.021,0.201 c -0.134,0.533 -0.534,1.311 -0.778,1.623 0.399,0.31 0.977,0.866 0.977,2 v 0.067 c -1.089,-0.355 -2.245,-0.623 -3.379,-0.823 -0.311,0.556 -0.933,1.423 -1.4,1.912 2.423,0.334 4.935,0.956 6.847,1.868 h -6.492 v 2.09 h 9.004 c -0.155,0.399 -0.333,0.777 -0.511,1.134 h 0.022 -0.711 c -0.111,0.51 -0.423,1.089 -0.623,1.511 0.512,-0.022 1.023,-0.022 1.179,-0.022 0.2,0 0.266,0.066 0.266,0.244 v 0.934 h -1.823 v -3.268 h -2.245 v 3.268 h -1.712 v -2.756 h -2.001 V 2.49 h 3.713 v 0.778 h -4.602 v 1.779 h 1.378 c -0.444,0.266 -1.022,0.599 -1.4,0.777 0.756,0.846 1.378,2.046 1.756,3.18 l 1.934,-0.489 c -0.111,-0.312 -0.222,-0.578 -0.355,-0.89 h 1.289 v 1.423 h 2.245 V 7.625 h 3.669 V 5.936 H -12.25 V 5.047 h 4.269 V 3.268 H -12.25 V 2.49 h 3.936 v -2.535 c 0,-0.556 -0.067,-0.934 -0.29,-1.178 l 0.512,0.133 c 0.333,-0.533 0.645,-1.223 0.866,-1.822 h 8.16 v -2.09 h -2.246 z"
             style="fill:#0888ca;fill-opacity:1;fill-rule:nonzero;stroke:none"
             id="path24" />
        </g>
        <g
           id="g26"
           transform="translate(101.3887,32.4213)">
          <path
             d="M 0,0 C 0.423,-1.512 1.001,-2.957 1.689,-4.269 2.356,-2.979 2.868,-1.534 3.224,0 Z m 0.223,-6.604 c -0.845,1.468 -1.49,3.114 -2.046,4.892 -0.067,-2.468 -0.311,-5.291 -1.067,-7.67 1.178,0.667 2.201,1.623 3.113,2.778 M 6.092,1.979 C 5.603,-1.468 4.669,-4.335 3.313,-6.647 c 0.978,-1.157 2.157,-2.113 3.49,-2.78 -0.6,-0.489 -1.401,-1.511 -1.801,-2.178 -1.244,0.711 -2.312,1.645 -3.245,2.756 -0.979,-1.156 -2.112,-2.156 -3.38,-2.912 -0.311,0.578 -0.911,1.378 -1.423,1.912 -0.244,-0.734 -0.556,-1.422 -0.933,-2.046 -0.467,0.446 -1.423,1.134 -2.045,1.423 1.578,2.846 1.755,7.337 1.755,10.406 V 7.781 H 5.78 V 5.402 H -1.801 V 2.401 H 4.024 L 4.469,2.49 Z m -16.585,-1.89 c 0,-0.556 0,-1.111 -0.023,-1.69 h 4.424 v -10.048 h -2.4 v 7.713 h -2.112 c -0.201,-2.889 -0.69,-5.78 -1.846,-7.891 -0.422,0.467 -1.289,1.244 -1.822,1.6 1.289,2.757 1.444,7.07 1.444,10.316 V 8.87 h 2.335 V 2.534 h 2.179 v 5.869 h 2.378 v -8.18 h -4.557 z"
             style="fill:#0888ca;fill-opacity:1;fill-rule:nonzero;stroke:none"
             id="path28" />
        </g>
        <g
           id="g30"
           transform="translate(136.1183,26.9076)">
          <path
             d="m 0,0 c 0,-1.268 -0.245,-2.112 -1.067,-2.579 -0.845,-0.467 -1.956,-0.533 -3.468,-0.533 -0.111,0.778 -0.578,2.067 -1.001,2.8 1.022,-0.043 2.09,-0.043 2.424,-0.043 0.333,0.022 0.422,0.132 0.422,0.421 V 10.427 H -6.604 V -6.158 H -9.271 V 13.05 l 9.271,0 z m -15.963,-0.312 c 1.734,0.512 3.691,1.113 5.58,1.668 l 0.357,-2.29 c -3.069,-1.067 -6.426,-2.178 -8.96,-3.023 l -0.578,2.623 1.001,0.267 v 13.005 c 2.289,0.535 4.824,1.334 6.447,2.113 l 2,-2.156 c -1.756,-0.667 -3.846,-1.246 -5.847,-1.691 V 7.069 h 5.514 V 4.513 h -5.514 z"
             style="fill:#0888ca;fill-opacity:1;fill-rule:nonzero;stroke:none"
             id="path32" />
        </g>
        <g
           id="g34"
           transform="translate(165.0435,41.0697)">
          <path
             d="m 0,0 v -17.186 c 0,-1.356 -0.268,-2.067 -1.045,-2.49 -0.778,-0.422 -2.001,-0.511 -3.669,-0.511 -0.089,0.689 -0.4,1.845 -0.756,2.601 1.09,-0.044 2.179,-0.044 2.557,-0.044 0.334,0 0.445,0.089 0.445,0.467 l 0,17.163 z m -3.936,-14.629 h -2.313 v 12.895 h 2.313 z m -3.624,-1.156 c 0,-0.89 -0.111,-1.467 -0.644,-1.823 -0.489,-0.378 -1.111,-0.422 -1.956,-0.422 -0.068,0.622 -0.334,1.489 -0.623,2.067 0.445,-0.022 0.778,-0.022 0.933,-0.022 0.157,0.022 0.201,0.067 0.201,0.245 v 4.379 h -1.267 v -9.004 h -2.201 v 9.004 h -1.179 v -6.758 h -1.912 v 8.937 h 3.091 v 1.845 h 2.201 v -1.845 h 3.356 z m -8.781,11.227 h 6.202 v 1.778 h -6.202 z m 0,-2.356 V -7.76 c 0,-3.445 -0.266,-8.626 -1.934,-11.893 -0.4,0.444 -1.423,1.2 -1.956,1.466 1.445,2.98 1.556,7.315 1.556,10.427 v 7.315 h 11.027 v -6.469 z"
             style="fill:#0888ca;fill-opacity:1;fill-rule:nonzero;stroke:none"
             id="path36" />
        </g>
        <path
           d="m 189.166,32.221 h -7.981 v -1.4 h 7.981 z m 0,-5.047 v 1.445 h -7.981 c 0,-0.467 -0.023,-0.934 -0.044,-1.445 z m -6.87,9.137 c -0.244,-0.6 -0.556,-1.178 -0.889,-1.756 h 10.338 V 23.572 c 0,-1.311 -0.245,-2.023 -1.156,-2.423 -0.867,-0.423 -2.135,-0.445 -3.935,-0.445 -0.111,0.734 -0.467,1.846 -0.8,2.557 1.134,-0.067 2.423,-0.067 2.801,-0.067 0.377,0.023 0.511,0.134 0.511,0.445 v 1.334 h -8.359 c -0.378,-1.667 -1.089,-3.29 -2.468,-4.424 -0.355,0.555 -1.356,1.667 -1.912,2.023 1.912,1.667 2.067,4.046 2.067,6.113 v 1.801 c -0.844,-0.888 -1.733,-1.712 -2.755,-2.423 -0.401,0.6 -1.224,1.556 -1.735,2.045 2.245,1.491 4.024,3.736 5.336,6.203 h -4.825 v 2.491 h 5.959 c 0.355,0.911 0.644,1.8 0.889,2.689 l 2.734,-0.622 c -0.222,-0.689 -0.467,-1.379 -0.711,-2.067 h 10.85 v -2.491 z"
           style="fill:#0888ca;fill-opacity:1;fill-rule:nonzero;stroke:none"
           id="path38" />
        <path
           d="m 214.512,32.665 h 4.892 v 1.779 h -4.892 z m 0,3.913 h 4.892 v 1.734 h -4.892 z m 8.737,-8.293 c -0.956,-0.756 -2.111,-1.601 -3.112,-2.245 0.934,-1.268 2.135,-2.312 3.602,-2.979 -0.579,-0.511 -1.378,-1.556 -1.756,-2.29 -3.313,1.823 -5.092,5.246 -6.137,9.604 h -1.334 v -6.247 l 3.091,0.689 c -0.023,-0.756 0.022,-1.845 0.111,-2.401 -4.336,-1.111 -5.158,-1.444 -5.691,-1.778 -0.2,0.578 -0.756,1.623 -1.134,2.067 0.467,0.289 1.022,0.89 1.022,1.935 V 40.58 H 221.96 V 30.375 h -3.846 c 0.245,-0.866 0.534,-1.667 0.889,-2.423 0.912,0.689 1.89,1.512 2.534,2.201 z m -11.982,11.428 c -0.578,-1.867 -1.313,-4.114 -1.912,-5.825 1.334,-1.734 1.6,-3.313 1.6,-4.624 0,-1.423 -0.289,-2.379 -1.001,-2.913 -0.333,-0.266 -0.756,-0.4 -1.244,-0.489 -0.4,-0.066 -0.934,-0.066 -1.445,-0.045 0,0.646 -0.223,1.623 -0.578,2.269 0.378,-0.023 0.711,-0.045 0.956,-0.023 0.222,0 0.444,0.044 0.6,0.178 0.267,0.2 0.4,0.69 0.4,1.312 0,1.089 -0.289,2.512 -1.556,4.068 0.422,1.356 0.911,3.157 1.267,4.624 h -2.156 V 20.749 h -2.313 v 19.853 h 5.292 l 0.355,0.111 z"
           style="fill:#0888ca;fill-opacity:1;fill-rule:nonzero;stroke:none"
           id="path40" />
        <g
           id="g42"
           transform="translate(247.2174,40.9359)">
          <path
             d="M 0,0 C 0.956,-3.112 2.979,-6.247 5.714,-7.914 5.113,-8.492 4.158,-9.76 3.713,-10.582 1.179,-8.648 -0.8,-5.669 -2.045,-2.734 H -5.603 V 0 Z m -0.422,-11.116 c 1.801,-2.446 3.846,-5.603 4.936,-7.67 l -2.735,-1.445 c -0.289,0.645 -0.689,1.378 -1.156,2.178 -10.738,-0.844 -12.25,-0.977 -13.34,-1.378 -0.178,0.556 -0.688,2.045 -1.089,2.824 0.734,0.2 1.334,0.8 2.223,1.778 0.935,0.956 3.713,4.736 5.47,8.427 l 3.09,-1.29 c -1.712,-3.001 -3.846,-5.981 -6.002,-8.381 l 8.159,0.533 c -0.712,1.111 -1.446,2.268 -2.135,3.246 z m -6.225,10.205 c -1.623,-3.647 -4.224,-7.403 -6.625,-9.738 -0.511,0.578 -1.69,1.734 -2.357,2.267 2.357,1.98 4.691,5.203 6.025,8.427 z"
             style="fill:#0888ca;fill-opacity:1;fill-rule:nonzero;stroke:none"
             id="path44" />
        </g>
        <path
           d="m 265.694,26.841 h 5.603 v 2.979 h -5.603 z m 0,-2.268 v -1.601 h -2.579 v 9.115 h 10.783 v -7.514 z m 9.36,9.159 h -13.073 v 2.313 h 13.073 z m 4.936,-9.671 c 0,-1.511 -0.268,-2.312 -1.224,-2.779 -0.911,-0.467 -2.334,-0.533 -4.313,-0.511 -0.088,0.778 -0.489,2.09 -0.867,2.868 1.245,-0.089 2.712,-0.067 3.135,-0.044 0.4,0 0.556,0.111 0.556,0.489 v 13.539 h -15.518 v 2.513 h 18.231 z"
           style="fill:#0888ca;fill-opacity:1;fill-rule:nonzero;stroke:none"
           id="path46" />
        <g
           id="g48"
           transform="translate(97.9566,83.4887)">
          <path
             d="m 0,0 h -3.695 v 20.656 h -0.026 -2.106 -11.226 l -0.112,-0.248 c -0.874,-1.95 -2.816,-3.21 -4.948,-3.21 -2.991,0 -5.424,2.433 -5.424,5.424 0,2.99 2.433,5.424 5.424,5.424 2.039,0 3.886,-1.13 4.822,-2.949 l 0.118,-0.229 H 0 Z M 2.13,24.887 2.098,25.321 C 1.146,37.9 -9.489,47.753 -22.113,47.753 c -13.393,0 -24.288,-10.896 -24.288,-24.288 0,-13.393 10.895,-24.289 24.288,-24.289 6.051,0 11.844,2.263 16.286,6.282 v -7.615 h 7.959 v 27.044 z"
             style="fill:#0888ca;fill-opacity:1;fill-rule:nonzero;stroke:none"
             id="path50" />
        </g>
        <path
           d="m 140.787,81.331 h -6.318 v 45.099 h 6.318 z"
           style="fill:#0888ca;fill-opacity:1;fill-rule:nonzero;stroke:none"
           id="path52" />
        <g
           id="g54"
           transform="translate(117.3957,88.725)">
          <path
             d="m 0,0 c -2.555,0 -4.626,2.071 -4.626,4.626 0,2.555 2.071,4.626 4.626,4.626 2.555,0 4.626,-2.071 4.626,-4.626 C 4.626,2.071 2.555,0 0,0 M 10.944,18.541 H 4.626 v -2.82 C 3.202,16.315 1.64,16.646 0,16.646 c -6.639,0 -12.02,-5.381 -12.02,-12.02 0,-6.639 5.381,-12.02 12.02,-12.02 1.64,0 3.202,0.331 4.626,0.925 v -0.925 h 6.318 v 7.069 9.902 z"
             style="fill:#0888ca;fill-opacity:1;fill-rule:nonzero;stroke:none"
             id="path56" />
        </g>
        <g
           id="g58"
           transform="translate(158.0944,88.725)">
          <path
             d="m 0,0 c -2.555,0 -4.626,2.071 -4.626,4.626 0,2.555 2.071,4.626 4.626,4.626 2.555,0 4.626,-2.071 4.626,-4.626 C 4.626,2.071 2.555,0 0,0 M 10.944,18.541 H 4.626 v -2.82 C 3.202,16.315 1.64,16.646 0,16.646 c -6.639,0 -12.02,-5.381 -12.02,-12.02 0,-6.639 5.381,-12.02 12.02,-12.02 1.64,0 3.202,0.331 4.626,0.925 v -0.925 h 6.318 v 7.069 9.902 z"
             style="fill:#0888ca;fill-opacity:1;fill-rule:nonzero;stroke:none"
             id="path60" />
        </g>
        <g
           id="g62"
           transform="translate(198.8278,94.473)">
          <path
             d="m 0,0 c 0,-5.815 -4.714,-10.53 -10.529,-10.53 -5.816,0 -10.53,4.715 -10.53,10.53 0,5.815 4.714,10.529 10.53,10.529 C -4.714,10.529 0,5.815 0,0"
             style="fill:#0888ca;fill-opacity:1;fill-rule:nonzero;stroke:none"
             id="path64" />
        </g>
        <g
           id="g66"
           transform="translate(177.0064,81.3314)">
          <path
             d="m 0,0 -2.681,2.681 25.266,25.264 2.68,-2.679 z"
             style="fill:#32b28a;fill-opacity:1;fill-rule:nonzero;stroke:none"
             id="path68" />
        </g>
        <g
           id="g70"
           transform="translate(199.5915,81.3314)">
          <path
             d="m 0,0 2.68,2.681 -25.265,25.264 -2.681,-2.679 z"
             style="fill:#32b28a;fill-opacity:1;fill-rule:nonzero;stroke:none"
             id="path72" />
        </g>
        <g
           id="g74"
           transform="translate(228.0192,69.1312)">
          <path
             d="M 0,0 -0.002,-0.001 -0.033,14.443 V 38.135 H -6.352 V 21.318 c -0.352,-0.327 -0.706,-0.549 -1.035,-0.698 -0.594,-0.204 -1.23,-0.321 -1.896,-0.321 -3.148,0 -5.699,2.462 -5.699,5.5 h -0.003 v 12.336 h -6.319 V 25.799 c 0,-1.469 0.295,-2.867 0.811,-4.16 1.521,-3.817 5.064,-6.663 9.367,-7.304 0.095,-0.02 0.198,-0.034 0.312,-0.042 0.043,-0.003 0.08,-0.005 0.122,-0.008 0.463,-0.052 0.931,-0.088 1.409,-0.088 0.539,0 1.064,0.049 1.585,0.116 0.123,0.016 0.236,0.032 0.34,0.049 0.125,0.02 0.252,0.031 0.375,0.053 v 0.021 c 0.461,0.108 0.631,0.218 0.631,0.218 V 2.299 0.029 -0.524 c 0,-0.803 -0.309,-1.527 -0.803,-2.082 -0.382,-0.402 -0.942,-0.777 -1.773,-1.003 -0.183,-0.034 -0.371,-0.057 -0.565,-0.057 -0.273,0 -0.53,0.05 -0.781,0.118 -0.54,0.195 -2.005,1.005 -3.56,4.296 l -4.62,-3.91 c 1.154,-3.883 4.746,-6.717 9.004,-6.717 0.398,0 0.787,0.033 1.172,0.081 l -0.004,-0.008 c 3.344,0.381 5.344,1.827 6.539,3.518 0.01,0.012 0.018,0.02 0.028,0.032 1.194,1.495 1.569,3.471 1.68,4.799 h 0.002 v 0.019 C 0.037,-0.584 0,0 0,0"
             style="fill:#0888ca;fill-opacity:1;fill-rule:nonzero;stroke:none"
             id="path76" />
        </g>
        <g
           id="g78"
           transform="translate(4.8706,2.2305)">
          <path
             d="m 0,0 c -1.434,0 -2.619,0.499 -3.521,1.483 -0.896,0.976 -1.35,2.258 -1.35,3.809 0,1.584 0.453,2.89 1.345,3.881 0.9,1.001 2.089,1.508 3.533,1.508 0.801,0 1.668,-0.152 2.576,-0.451 C 2.7,10.192 2.779,10.083 2.779,9.961 V 8.601 C 2.779,8.502 2.728,8.411 2.644,8.359 2.598,8.331 2.547,8.317 2.495,8.317 2.451,8.317 2.408,8.327 2.367,8.348 1.51,8.781 0.702,9.001 -0.034,9.001 -0.858,9.001 -1.518,8.677 -2.052,8.01 -2.593,7.332 -2.868,6.45 -2.868,5.39 c 0,-1.061 0.309,-1.939 0.918,-2.612 0.61,-0.674 1.368,-1.001 2.319,-1.001 0.163,0 0.366,0.017 0.605,0.05 V 3.851 H -0.39 c -0.156,0 -0.283,0.127 -0.283,0.283 v 1.112 c 0,0.156 0.127,0.283 0.283,0.283 h 2.994 c 0.157,0 0.284,-0.127 0.284,-0.283 V 0.765 C 2.888,0.645 2.812,0.537 2.698,0.497 1.754,0.167 0.847,0 0,0"
             style="fill:#0888ca;fill-opacity:1;fill-rule:nonzero;stroke:none"
             id="path80" />
        </g>
        <g
           id="g82"
           transform="translate(7.3657,12.1914)">
          <path
             d="m 0,0 v -1.36 c -0.902,0.456 -1.746,0.683 -2.529,0.683 -0.907,0 -1.654,-0.366 -2.239,-1.097 -0.586,-0.733 -0.878,-1.664 -0.878,-2.797 0,-1.139 0.33,-2.073 0.991,-2.802 0.66,-0.73 1.504,-1.094 2.529,-1.094 0.232,0 0.529,0.03 0.889,0.09 v 2.55 h -1.648 v 1.112 h 2.994 v -4.481 c -0.916,-0.321 -1.784,-0.482 -2.604,-0.482 -1.358,0 -2.462,0.464 -3.312,1.392 -0.85,0.927 -1.275,2.133 -1.275,3.617 0,1.519 0.424,2.749 1.271,3.691 0.848,0.943 1.956,1.415 3.323,1.415 C -1.713,0.437 -0.884,0.291 0,0"
             style="fill:#0888ca;fill-opacity:1;fill-rule:nonzero;stroke:none"
             id="path84" />
        </g>
        <g
           id="g86"
           transform="translate(20.4839,6.5566)">
          <path
             d="M 0,0 -1.208,3.462 -2.405,0 Z m 1.63,-4.093 c -0.121,0 -0.229,0.077 -0.268,0.192 L 0.599,-1.679 H -3.005 L -3.78,-3.903 c -0.04,-0.114 -0.147,-0.19 -0.268,-0.19 h -1.161 c -0.092,0 -0.179,0.045 -0.232,0.12 -0.053,0.076 -0.066,0.172 -0.035,0.259 l 3.459,9.648 c 0.04,0.112 0.147,0.187 0.267,0.187 h 1.347 c 0.119,0 0.226,-0.075 0.266,-0.187 L 3.322,-3.714 C 3.354,-3.801 3.34,-3.897 3.288,-3.973 3.234,-4.048 3.148,-4.093 3.056,-4.093 Z"
             style="fill:#0888ca;fill-opacity:1;fill-rule:nonzero;stroke:none"
             id="path88" />
        </g>
        <g
           id="g90"
           transform="translate(17.6812,6.2734)">
          <path
             d="M 0,0 H 3.202 L 1.593,4.609 Z M -2.406,-3.526 1.053,6.121 H 2.399 L 5.858,-3.526 H 4.433 l -0.829,2.414 h -4.007 l -0.842,-2.414 z"
             style="fill:#0888ca;fill-opacity:1;fill-rule:nonzero;stroke:none"
             id="path92" />
        </g>
        <g
           id="g94"
           transform="translate(32.146,2.4639)">
          <path
             d="m 0,0 c -0.157,0 -0.284,0.127 -0.284,0.283 v 9.648 c 0,0.156 0.127,0.283 0.284,0.283 h 1.347 c 0.156,0 0.283,-0.127 0.283,-0.283 V 1.68 h 4.44 c 0.157,0 0.284,-0.127 0.284,-0.284 V 0.283 C 6.354,0.127 6.227,0 6.07,0 Z"
             style="fill:#0888ca;fill-opacity:1;fill-rule:nonzero;stroke:none"
             id="path96" />
        </g>
        <g
           id="g98"
           transform="translate(32.146,2.7471)">
          <path
             d="M 0,0 V 9.647 H 1.347 V 1.113 H 6.07 V 0 Z"
             style="fill:#0888ca;fill-opacity:1;fill-rule:nonzero;stroke:none"
             id="path100" />
        </g>
        <g
           id="g102"
           transform="translate(51.355,6.5566)">
          <path
             d="M 0,0 -1.209,3.462 -2.405,0 Z m 1.63,-4.093 c -0.121,0 -0.229,0.077 -0.269,0.192 L 0.6,-1.679 H -3.005 L -3.78,-3.903 c -0.04,-0.114 -0.147,-0.19 -0.268,-0.19 h -1.161 c -0.092,0 -0.179,0.045 -0.232,0.12 -0.053,0.076 -0.066,0.172 -0.035,0.259 l 3.459,9.648 c 0.04,0.112 0.147,0.187 0.267,0.187 h 1.347 c 0.12,0 0.226,-0.075 0.266,-0.187 L 3.322,-3.714 C 3.354,-3.801 3.341,-3.897 3.287,-3.973 3.234,-4.048 3.147,-4.093 3.056,-4.093 Z"
             style="fill:#0888ca;fill-opacity:1;fill-rule:nonzero;stroke:none"
             id="path104" />
        </g>
        <g
           id="g106"
           transform="translate(48.5522,6.2734)">
          <path
             d="M 0,0 H 3.202 L 1.593,4.609 Z M -2.406,-3.526 1.053,6.121 H 2.399 L 5.858,-3.526 H 4.433 l -0.829,2.414 h -4.007 l -0.842,-2.414 z"
             style="fill:#0888ca;fill-opacity:1;fill-rule:nonzero;stroke:none"
             id="path108" />
        </g>
        <g
           id="g110"
           transform="translate(68.2358,2.4639)">
          <path
             d="M 0,0 C -0.096,0 -0.185,0.048 -0.236,0.127 L -2.599,3.707 -5.116,0.12 C -5.17,0.045 -5.256,0 -5.349,0 h -1.312 c -0.106,0 -0.202,0.059 -0.251,0.152 -0.049,0.094 -0.042,0.207 0.018,0.293 l 3.319,4.741 -3.029,4.588 c -0.057,0.087 -0.062,0.2 -0.013,0.291 0.05,0.092 0.145,0.149 0.25,0.149 h 1.596 c 0.095,0 0.184,-0.048 0.236,-0.127 l 2.134,-3.233 2.275,3.24 c 0.054,0.075 0.14,0.12 0.232,0.12 h 1.313 c 0.105,0 0.203,-0.059 0.252,-0.152 C 1.72,9.968 1.712,9.854 1.65,9.768 L -1.433,5.387 1.833,0.439 C 1.891,0.353 1.896,0.241 1.847,0.148 1.797,0.057 1.701,0 1.597,0 Z"
             style="fill:#0888ca;fill-opacity:1;fill-rule:nonzero;stroke:none"
             id="path112" />
        </g>
        <g
           id="g114"
           transform="translate(61.5747,2.7471)">
          <path
             d="M 0,0 3.429,4.897 0.294,9.647 H 1.89 l 2.363,-3.58 2.515,3.58 H 8.08 L 4.886,5.108 8.258,0 H 6.661 L 4.069,3.928 1.312,0 Z"
             style="fill:#0888ca;fill-opacity:1;fill-rule:nonzero;stroke:none"
             id="path116" />
        </g>
        <g
           id="g118"
           transform="translate(80.4829,2.4639)">
          <path
             d="m 0,0 c -0.156,0 -0.283,0.127 -0.283,0.283 v 3.871 l -3.291,5.634 c -0.051,0.087 -0.051,0.195 -0.001,0.283 0.051,0.089 0.144,0.143 0.246,0.143 h 1.552 c 0.101,0 0.195,-0.054 0.246,-0.143 L 0.783,6.03 3.321,10.081 c 0.052,0.083 0.143,0.133 0.241,0.133 H 4.84 c 0.102,0 0.197,-0.056 0.247,-0.145 C 5.138,9.979 5.135,9.87 5.081,9.782 L 1.63,4.151 V 0.283 C 1.63,0.127 1.503,0 1.347,0 Z"
             style="fill:#0888ca;fill-opacity:1;fill-rule:nonzero;stroke:none"
             id="path120" />
        </g>
        <g
           id="g122"
           transform="translate(80.4829,2.7471)">
          <path
             d="m 0,0 v 3.948 l -3.329,5.699 h 1.552 L 0.772,5.196 3.562,9.647 H 4.84 L 1.347,3.948 V 0 Z"
             style="fill:#0888ca;fill-opacity:1;fill-rule:nonzero;stroke:none"
             id="path124" />
        </g>
        <g
           id="g126"
           transform="translate(111.5522,7.8057)">
          <path
             d="M 0,0 C 2.197,0 2.451,1.04 2.451,1.822 2.451,2.323 2.319,2.664 2.05,2.865 1.757,3.083 1.234,3.193 0.499,3.193 h -1.057 l 0,-3.193 z m -2.188,-5.342 c -0.156,0 -0.283,0.127 -0.283,0.283 v 9.648 c 0,0.156 0.127,0.283 0.283,0.283 H 0.666 C 1.734,4.872 2.485,4.766 2.962,4.546 3.952,4.074 4.453,3.168 4.453,1.852 4.453,0.755 4.058,-0.121 3.276,-0.753 2.515,-1.368 1.461,-1.68 0.145,-1.68 h -0.703 v -3.379 c 0,-0.156 -0.127,-0.283 -0.283,-0.283 z"
             style="fill:#0888ca;fill-opacity:1;fill-rule:nonzero;stroke:none"
             id="path128" />
        </g>
        <g
           id="g130"
           transform="translate(110.7114,7.5225)">
          <path
             d="M 0,0 H 0.841 C 2.664,0 3.575,0.701 3.575,2.105 3.575,2.696 3.403,3.12 3.06,3.376 2.715,3.632 2.142,3.76 1.34,3.76 H 0 Z M -1.347,-4.775 V 4.872 H 1.507 C 2.524,4.872 3.25,4.771 3.684,4.571 4.568,4.15 5.011,3.338 5.011,2.135 5.011,1.122 4.653,0.328 3.939,-0.249 3.226,-0.825 2.24,-1.113 0.985,-1.113 H 0 v -3.662 z"
             style="fill:#0888ca;fill-opacity:1;fill-rule:nonzero;stroke:none"
             id="path132" />
        </g>
        <g
           id="g134"
           transform="translate(128.5874,2.2305)">
          <path
             d="m 0,0 c -1.47,0 -2.674,0.494 -3.578,1.471 -0.899,0.968 -1.354,2.255 -1.354,3.821 0,1.584 0.453,2.89 1.344,3.881 0.9,1.001 2.089,1.508 3.533,1.508 0.802,0 1.669,-0.152 2.577,-0.451 0.117,-0.038 0.195,-0.147 0.195,-0.269 V 8.601 C 2.717,8.502 2.666,8.411 2.582,8.359 2.537,8.331 2.485,8.317 2.434,8.317 2.39,8.317 2.346,8.327 2.306,8.348 1.448,8.781 0.641,9.001 -0.096,9.001 -0.92,9.001 -1.579,8.677 -2.112,8.01 -2.654,7.332 -2.93,6.45 -2.93,5.39 c 0,-1.08 0.301,-1.936 0.918,-2.615 0.611,-0.671 1.376,-0.998 2.34,-0.998 0.587,0 1.297,0.175 2.111,0.519 0.036,0.016 0.074,0.022 0.111,0.022 0.054,0 0.109,-0.015 0.156,-0.047 C 2.785,2.219 2.833,2.13 2.833,2.035 V 0.817 C 2.833,0.701 2.762,0.597 2.653,0.554 1.721,0.187 0.828,0 0,0"
             style="fill:#0888ca;fill-opacity:1;fill-rule:nonzero;stroke:none"
             id="path136" />
        </g>
        <g
           id="g138"
           transform="translate(131.1372,3.0479)">
          <path
             d="m 0,0 c -0.902,-0.355 -1.752,-0.534 -2.55,-0.534 -1.394,0 -2.517,0.46 -3.37,1.38 -0.852,0.92 -1.278,2.13 -1.278,3.629 0,1.518 0.424,2.749 1.271,3.691 0.848,0.942 1.955,1.414 3.323,1.414 0.774,0 1.604,-0.145 2.488,-0.436 V 7.783 c -0.903,0.456 -1.745,0.684 -2.53,0.684 -0.907,0 -1.653,-0.366 -2.238,-1.098 -0.586,-0.732 -0.879,-1.664 -0.879,-2.797 0,-1.143 0.33,-2.078 0.992,-2.804 0.661,-0.728 1.51,-1.091 2.549,-1.091 0.629,0 1.369,0.18 2.222,0.541 z"
             style="fill:#0888ca;fill-opacity:1;fill-rule:nonzero;stroke:none"
             id="path140" />
        </g>
        <g
           id="g142"
           transform="translate(141.7603,8.5049)">
          <path
             d="M 0,0 C 2.438,0 2.438,1.043 2.438,1.386 2.438,1.824 2.313,2.104 2.059,2.242 1.848,2.357 1.346,2.494 0.157,2.494 h -0.345 l 0,-2.494 z m 0.745,-4.361 c 1.037,0 1.492,0.141 1.691,0.26 0.245,0.147 0.364,0.429 0.364,0.863 0,0.525 -0.229,0.932 -0.698,1.244 -0.498,0.333 -1.199,0.502 -2.081,0.502 h -0.209 v -2.869 z m -2.563,-1.68 c -0.157,0 -0.284,0.127 -0.284,0.283 V 3.89 c 0,0.156 0.127,0.283 0.284,0.283 h 2.83 C 3.788,4.173 4.371,2.801 4.371,1.649 4.371,1.011 4.17,0.452 3.773,-0.013 3.547,-0.278 3.269,-0.5 2.939,-0.676 c 1.238,-0.483 1.863,-1.35 1.863,-2.586 0,-0.842 -0.273,-1.514 -0.812,-2 C 3.648,-5.577 3.249,-5.791 2.806,-5.896 2.386,-5.993 1.738,-6.041 0.827,-6.041 Z"
             style="fill:#0888ca;fill-opacity:1;fill-rule:nonzero;stroke:none"
             id="path144" />
        </g>
        <g
           id="g146"
           transform="translate(141.2886,3.8604)">
          <path
             d="m 0,0 h 1.217 c 0.888,0 1.5,0.1 1.836,0.301 0.334,0.2 0.502,0.568 0.502,1.105 C 3.555,2.027 3.28,2.521 2.73,2.887 2.182,3.253 1.436,3.436 0.492,3.436 H 0 Z m 0,4.361 h 0.472 c 1.813,0 2.72,0.556 2.72,1.669 0,0.546 -0.175,0.915 -0.526,1.106 -0.351,0.19 -1.03,0.286 -2.037,0.286 L 0,7.422 Z m -1.347,-5.474 v 9.647 h 2.83 C 3.534,8.534 4.56,7.787 4.56,6.294 4.56,5.722 4.383,5.229 4.029,4.815 3.677,4.402 3.184,4.107 2.55,3.933 4.177,3.566 4.99,2.717 4.99,1.383 4.99,0.621 4.751,0.024 4.272,-0.406 3.963,-0.692 3.609,-0.882 3.213,-0.975 2.816,-1.067 2.179,-1.113 1.299,-1.113 Z"
             style="fill:#0888ca;fill-opacity:1;fill-rule:nonzero;stroke:none"
             id="path148" />
        </g>
        <g
           id="g150"
           transform="translate(174.894,2.2305)">
          <path
             d="m 0,0 c -1.47,0 -2.674,0.494 -3.578,1.471 -0.899,0.968 -1.354,2.255 -1.354,3.821 0,1.584 0.453,2.89 1.344,3.881 0.9,1.001 2.089,1.508 3.533,1.508 0.802,0 1.669,-0.152 2.577,-0.451 0.117,-0.038 0.195,-0.147 0.195,-0.269 V 8.601 C 2.717,8.502 2.666,8.411 2.582,8.359 2.537,8.331 2.485,8.317 2.434,8.317 2.39,8.317 2.346,8.327 2.306,8.348 1.448,8.781 0.641,9.001 -0.096,9.001 -0.92,9.001 -1.579,8.677 -2.112,8.01 -2.654,7.332 -2.93,6.45 -2.93,5.39 c 0,-1.08 0.301,-1.936 0.918,-2.615 0.611,-0.671 1.376,-0.998 2.34,-0.998 0.587,0 1.297,0.175 2.111,0.519 0.036,0.016 0.074,0.022 0.111,0.022 0.054,0 0.109,-0.015 0.156,-0.047 C 2.785,2.219 2.833,2.13 2.833,2.035 V 0.817 C 2.833,0.701 2.762,0.597 2.653,0.554 1.721,0.187 0.828,0 0,0"
             style="fill:#0888ca;fill-opacity:1;fill-rule:nonzero;stroke:none"
             id="path152" />
        </g>
        <g
           id="g154"
           transform="translate(177.4438,3.0479)">
          <path
             d="m 0,0 c -0.902,-0.355 -1.752,-0.534 -2.55,-0.534 -1.394,0 -2.517,0.46 -3.37,1.38 -0.852,0.92 -1.278,2.13 -1.278,3.629 0,1.518 0.424,2.749 1.271,3.691 0.848,0.942 1.955,1.414 3.323,1.414 0.774,0 1.604,-0.145 2.488,-0.436 V 7.783 c -0.903,0.456 -1.745,0.684 -2.53,0.684 -0.907,0 -1.653,-0.366 -2.238,-1.098 -0.586,-0.732 -0.879,-1.664 -0.879,-2.797 0,-1.143 0.33,-2.078 0.992,-2.804 0.661,-0.728 1.51,-1.091 2.549,-1.091 0.629,0 1.369,0.18 2.222,0.541 z"
             style="fill:#0888ca;fill-opacity:1;fill-rule:nonzero;stroke:none"
             id="path156" />
        </g>
        <g
           id="g158"
           transform="translate(189.2017,11.2314)">
          <path
             d="m 0,0 c -0.655,0 -1.147,-0.291 -1.504,-0.889 -0.379,-0.636 -0.571,-1.568 -0.571,-2.768 0,-1.204 0.192,-2.139 0.571,-2.777 0.357,-0.596 0.849,-0.887 1.504,-0.887 0.655,0 1.148,0.291 1.507,0.888 0.382,0.637 0.575,1.571 0.575,2.776 0,1.2 -0.193,2.132 -0.575,2.768 C 1.148,-0.291 0.655,0 0,0 m 0.003,-9.001 c -1.247,0 -2.254,0.5 -2.994,1.486 -0.721,0.959 -1.086,2.257 -1.086,3.858 0,1.595 0.365,2.891 1.086,3.851 0.74,0.987 1.747,1.486 2.994,1.486 1.247,0 2.255,-0.499 2.995,-1.486 0.721,-0.962 1.086,-2.257 1.086,-3.851 0,-1.599 -0.365,-2.897 -1.086,-3.858 C 2.258,-8.501 1.25,-9.001 0.003,-9.001"
             style="fill:#0888ca;fill-opacity:1;fill-rule:nonzero;stroke:none"
             id="path160" />
        </g>
        <g
           id="g162"
           transform="translate(186.8433,7.5742)">
          <path
             d="m 0,0 c 0,-1.263 0.204,-2.236 0.611,-2.921 0.409,-0.684 0.991,-1.026 1.747,-1.026 0.757,0 1.34,0.342 1.75,1.026 C 4.519,-2.236 4.724,-1.263 4.724,0 4.724,1.259 4.519,2.229 4.108,2.914 3.698,3.599 3.115,3.94 2.358,3.94 1.602,3.94 1.02,3.599 0.611,2.914 0.204,2.229 0,1.259 0,0 m -1.436,0 c 0,1.539 0.343,2.767 1.03,3.682 0.686,0.914 1.609,1.372 2.767,1.372 1.16,0 2.082,-0.458 2.769,-1.372 C 5.815,2.767 6.159,1.539 6.159,0 6.159,-1.544 5.815,-2.773 5.13,-3.688 4.443,-4.603 3.521,-5.061 2.361,-5.061 c -1.158,0 -2.081,0.458 -2.767,1.373 -0.687,0.915 -1.03,2.144 -1.03,3.688"
             style="fill:#0888ca;fill-opacity:1;fill-rule:nonzero;stroke:none"
             id="path164" />
        </g>
        <g
           id="g166"
           transform="translate(202.0854,2.2324)">
          <path
             d="m 0,0 c -0.797,0 -1.235,0.456 -1.235,1.284 0,0.829 0.438,1.285 1.235,1.285 0.44,0 1.179,-0.167 1.179,-1.285 C 1.179,0.456 0.761,0 0,0"
             style="fill:#0888ca;fill-opacity:1;fill-rule:nonzero;stroke:none"
             id="path168" />
        </g>
        <g
           id="g170"
           transform="translate(202.0854,2.5156)">
          <path
             d="m 0,0 c -0.635,0 -0.952,0.334 -0.952,1.001 0,0.668 0.317,1.002 0.952,1.002 0.598,0 0.896,-0.334 0.896,-1.002 C 0.896,0.334 0.598,0 0,0"
             style="fill:#0888ca;fill-opacity:1;fill-rule:nonzero;stroke:none"
             id="path172" />
        </g>
        <g
           id="g174"
           transform="translate(211.606)">
          <path
             d="m 0,0 c -0.097,0 -0.191,0.05 -0.244,0.139 l -0.21,0.354 c -0.075,0.128 -0.04,0.292 0.082,0.377 0.286,0.2 0.509,0.386 0.66,0.552 0.145,0.159 0.25,0.304 0.312,0.428 0.059,0.118 0.095,0.221 0.106,0.308 0.012,0.104 0.019,0.203 0.019,0.296 -0.721,0.071 -1.121,0.455 -1.121,1.125 0,0.807 0.415,1.269 1.138,1.269 0.525,0 1.404,-0.227 1.404,-1.746 C 2.146,2.42 1.968,1.82 1.618,1.321 1.278,0.837 0.781,0.405 0.142,0.037 0.097,0.012 0.048,0 0,0"
             style="fill:#0888ca;fill-opacity:1;fill-rule:nonzero;stroke:none"
             id="path176" />
        </g>
        <g
           id="g178"
           transform="translate(211.396,0.6377)">
          <path
             d="m 0,0 c 0.308,0.215 0.543,0.413 0.707,0.593 0.163,0.179 0.282,0.344 0.356,0.492 0.076,0.149 0.12,0.283 0.134,0.4 0.014,0.119 0.021,0.229 0.021,0.331 0,0.237 -0.103,0.355 -0.308,0.355 -0.542,0 -0.812,0.257 -0.812,0.77 0,0.657 0.285,0.986 0.854,0.986 0.746,0 1.12,-0.489 1.12,-1.463 C 2.072,1.838 1.913,1.299 1.596,0.847 1.278,0.395 0.816,-0.006 0.21,-0.354 Z"
             style="fill:#0888ca;fill-opacity:1;fill-rule:nonzero;stroke:none"
             id="path180" />
        </g>
        <g
           id="g182"
           transform="translate(233.9409,2.4639)">
          <path
             d="m 0,0 c -0.156,0 -0.283,0.127 -0.283,0.283 v 9.648 c 0,0.156 0.127,0.283 0.283,0.283 h 1.347 c 0.156,0 0.283,-0.127 0.283,-0.283 V 1.68 h 4.44 c 0.157,0 0.284,-0.127 0.284,-0.284 V 0.283 C 6.354,0.127 6.227,0 6.07,0 Z"
             style="fill:#0888ca;fill-opacity:1;fill-rule:nonzero;stroke:none"
             id="path184" />
        </g>
        <g
           id="g186"
           transform="translate(233.9409,2.7471)">
          <path
             d="M 0,0 V 9.647 H 1.347 V 1.113 H 6.07 V 0 Z"
             style="fill:#0888ca;fill-opacity:1;fill-rule:nonzero;stroke:none"
             id="path188" />
        </g>
        <g
           id="g190"
           transform="translate(251.3999,2.4639)">
          <path
             d="M 0,0 C -0.156,0 -0.283,0.127 -0.283,0.283 V 8.535 H -3.37 c -0.156,0 -0.283,0.127 -0.283,0.283 v 1.113 c 0,0.156 0.127,0.283 0.283,0.283 h 8.094 c 0.156,0 0.283,-0.127 0.283,-0.283 V 8.818 C 5.007,8.662 4.88,8.535 4.724,8.535 H 1.63 V 0.283 C 1.63,0.127 1.503,0 1.347,0 Z"
             style="fill:#0888ca;fill-opacity:1;fill-rule:nonzero;stroke:none"
             id="path192" />
        </g>
        <g
           id="g194"
           transform="translate(251.3999,2.7471)">
          <path
             d="M 0,0 V 8.535 H -3.37 V 9.647 H 4.724 V 8.535 H 1.347 L 1.347,0 Z"
             style="fill:#0888ca;fill-opacity:1;fill-rule:nonzero;stroke:none"
             id="path196" />
        </g>
        <g
           id="g198"
           transform="translate(266.2065,4.1436)">
          <path
             d="m 0,0 c 1.2,0 2.055,0.255 2.541,0.756 0.489,0.504 0.737,1.389 0.737,2.63 0,1.267 -0.225,2.176 -0.671,2.7 C 2.174,6.597 1.418,6.855 0.362,6.855 H -0.394 V 0 Z m -2.023,-1.68 c -0.157,0 -0.284,0.127 -0.284,0.284 v 9.647 c 0,0.156 0.127,0.283 0.284,0.283 H 0.622 C 3.713,8.534 5.28,6.881 5.28,3.619 5.28,2.137 4.943,0.914 4.277,-0.013 3.852,-0.61 3.316,-1.044 2.688,-1.302 2.076,-1.553 1.259,-1.68 0.26,-1.68 Z"
             style="fill:#0888ca;fill-opacity:1;fill-rule:nonzero;stroke:none"
             id="path200" />
        </g>
        <g
           id="g202"
           transform="translate(265.5298,3.8604)">
          <path
             d="M 0,0 H 0.677 C 1.962,0 2.877,0.28 3.421,0.842 3.966,1.403 4.238,2.346 4.238,3.669 4.238,5.013 3.992,5.974 3.5,6.553 3.008,7.132 2.188,7.422 1.039,7.422 H 0 Z M -1.347,-1.113 V 8.534 H 1.299 C 4.216,8.534 5.674,6.99 5.674,3.902 5.674,2.474 5.357,1.318 4.724,0.436 4.327,-0.121 3.839,-0.518 3.257,-0.756 2.677,-0.994 1.902,-1.113 0.937,-1.113 Z"
             style="fill:#0888ca;fill-opacity:1;fill-rule:nonzero;stroke:none"
             id="path204" />
        </g>
        <g
           id="g206"
           transform="translate(280.396,2.2324)">
          <path
             d="m 0,0 c -0.797,0 -1.235,0.456 -1.235,1.284 0,0.829 0.438,1.285 1.235,1.285 0.44,0 1.179,-0.167 1.179,-1.285 C 1.179,0.456 0.761,0 0,0"
             style="fill:#0888ca;fill-opacity:1;fill-rule:nonzero;stroke:none"
             id="path208" />
        </g>
        <g
           id="g210"
           transform="translate(280.396,2.5156)">
          <path
             d="m 0,0 c -0.635,0 -0.952,0.334 -0.952,1.001 0,0.668 0.317,1.002 0.952,1.002 0.598,0 0.896,-0.334 0.896,-1.002 C 0.896,0.334 0.598,0 0,0"
             style="fill:#0888ca;fill-opacity:1;fill-rule:nonzero;stroke:none"
             id="path212" />
        </g>
      </g>
    </g>
  </g>
</svg>
