<?xml version="1.0" standalone="no"?>
<!DOCTYPE svg PUBLIC "-//W3C//DTD SVG 20010904//EN"
 "http://www.w3.org/TR/2001/REC-SVG-20010904/DTD/svg10.dtd">
<svg version="1.0" xmlns="http://www.w3.org/2000/svg"
 width="4460.000000pt" height="726.000000pt" viewBox="0 0 4460.000000 726.000000"
 preserveAspectRatio="xMidYMid meet">
<metadata>
Created by potrace 1.16, written by Peter Selinger 2001-2019
</metadata>
<g transform="translate(0.000000,726.000000) scale(0.100000,-0.100000)"
fill="#000000" stroke="none">
<path d="M4688 4999 c-465 -47 -817 -249 -908 -518 -19 -59 -20 -82 -20 -896
l0 -835 468 2 467 3 3 809 2 810 22 23 c40 43 146 56 216 28 26 -11 251 -229
742 -720 724 -722 754 -749 895 -815 230 -106 539 -156 812 -130 409 38 728
185 873 403 80 119 80 118 80 733 l0 544 545 0 545 0 0 -845 0 -845 470 0 470
0 0 845 0 845 544 0 545 0 3 -427 3 -428 28 -80 c39 -109 87 -185 179 -281
228 -238 587 -392 1058 -456 72 -10 319 -13 1010 -13 899 0 918 0 1061 22 429
67 766 218 980 440 96 99 156 194 191 298 l23 70 0 710 0 710 -510 0 -510 0
-2 -683 c-2 -675 -2 -685 -23 -728 -40 -83 -157 -160 -300 -201 -61 -17 -122
-18 -920 -18 -949 0 -905 -3 -1044 67 -84 42 -131 82 -164 136 l-27 47 -5 690
-5 690 -2542 2 -2543 3 0 -813 0 -814 -22 -20 c-48 -43 -147 -56 -216 -28 -26
11 -250 228 -742 719 -448 448 -725 717 -760 739 -159 99 -336 163 -550 196
-96 15 -323 21 -422 10z"/>
<path d="M16290 4740 l0 -270 2048 -2 2047 -3 42 -23 c50 -26 64 -49 65 -103
1 -116 -123 -239 -301 -299 -135 -45 -187 -47 -1088 -49 -469 -1 -858 -3 -865
-6 -7 -2 -47 -6 -88 -10 -272 -21 -642 -116 -895 -228 -127 -57 -199 -98 -964
-557 l-724 -435 633 -3 633 -2 442 265 c464 278 516 305 667 353 223 71 336
82 868 82 l445 0 350 -350 350 -350 703 0 704 0 1384 831 c761 456 1400 837
1419 845 65 27 168 12 211 -31 l24 -24 0 -811 0 -810 468 2 467 3 3 810 c2
586 0 825 -9 865 -54 260 -361 475 -785 551 -170 31 -432 31 -597 1 -129 -24
-274 -68 -370 -111 -34 -16 -714 -420 -1512 -899 l-1450 -871 -187 187 -188
186 93 18 c527 100 909 350 1029 674 18 48 22 81 23 179 0 111 -2 125 -28 180
-95 203 -324 359 -642 436 -202 49 -199 49 -2382 49 l-2043 0 0 -270z"/>
<path d="M26885 5004 c-391 -30 -723 -131 -983 -300 -103 -66 -262 -223 -310
-306 -18 -31 -45 -89 -60 -130 l-27 -73 0 -315 0 -315 27 -73 c38 -106 82
-173 176 -273 215 -227 552 -377 1002 -446 92 -14 291 -17 1633 -20 l1527 -4
0 295 0 295 -1477 4 c-1654 4 -1537 -2 -1700 76 -89 43 -157 103 -186 163 -15
31 -17 70 -17 300 l0 263 30 51 c35 63 85 103 182 149 144 68 62 65 1691 68
l1472 2 0 295 0 295 -1470 1 c-808 0 -1488 -1 -1510 -2z"/>
<path d="M30077 5004 c-4 -4 -7 -513 -7 -1131 l0 -1123 470 0 470 0 0 1130 0
1129 -463 1 c-255 0 -466 -3 -470 -6z"/>
<path d="M32152 5000 c-181 -19 -417 -81 -537 -142 -194 -99 -329 -237 -375
-385 -19 -63 -20 -92 -20 -893 l0 -829 470 -1 470 -1 0 806 c0 559 3 813 11
827 27 50 152 73 227 43 26 -11 252 -231 747 -724 640 -638 718 -713 790 -755
206 -119 439 -181 710 -190 557 -18 1043 211 1140 537 13 43 15 172 15 884 l0
832 -467 -2 -468 -2 -3 -809 -2 -810 -22 -23 c-37 -39 -142 -56 -205 -32 -15
5 -341 323 -728 708 -765 764 -774 772 -968 851 -103 41 -255 83 -364 99 -103
16 -323 21 -421 11z"/>
<path d="M37295 4999 c-634 -51 -1152 -340 -1297 -724 -22 -58 -23 -71 -23
-395 0 -324 1 -337 23 -395 113 -299 451 -544 911 -659 129 -33 253 -54 386
-65 61 -5 883 -9 1828 -10 l1717 -1 0 525 0 525 -490 0 -490 0 0 -230 0 -230
-1157 0 c-647 0 -1209 5 -1273 10 -229 19 -400 108 -459 240 -19 41 -21 65
-21 290 0 236 1 247 24 295 41 88 128 153 276 207 l65 23 1763 3 1762 2 0 300
0 300 -1722 -1 c-948 -1 -1768 -6 -1823 -10z"/>
<path d="M27302 1999 c-242 -37 -373 -180 -360 -393 15 -229 182 -350 483
-350 237 0 390 74 458 222 18 39 22 65 22 152 0 94 -3 111 -28 161 -66 134
-201 204 -417 214 -52 2 -123 0 -158 -6z m291 -179 c82 -39 119 -98 119 -190
-1 -138 -84 -208 -258 -218 -199 -10 -314 69 -314 217 0 102 48 165 155 204
72 26 231 19 298 -13z"/>
<path d="M15540 1910 l0 -80 150 0 150 0 0 -280 0 -280 100 0 100 0 0 280 0
280 150 0 150 0 0 80 0 80 -400 0 -400 0 0 -80z"/>
<path d="M17190 1630 l0 -360 368 2 367 3 0 75 0 75 -265 5 c-146 3 -264 8
-262 13 1 4 2 32 2 62 l0 55 245 0 245 0 0 80 0 80 -247 0 -248 0 3 55 4 55
259 0 259 0 0 80 0 80 -365 0 -365 0 0 -360z"/>
<path d="M19116 1968 c-7 -13 -85 -160 -171 -328 -87 -168 -164 -314 -172
-325 -27 -41 -19 -45 92 -45 l105 0 35 70 35 70 197 -2 196 -3 34 -67 34 -68
110 0 110 0 -59 113 c-33 61 -115 218 -182 347 -67 129 -127 241 -132 248 -7
8 -43 12 -114 12 -97 0 -104 -2 -118 -22z m184 -288 c33 -66 60 -122 60 -125
0 -3 -56 -5 -125 -5 l-125 0 62 125 c35 69 64 125 65 125 2 0 30 -54 63 -120z"/>
<path d="M20565 1977 c-3 -6 -4 -167 -3 -357 l3 -345 97 -3 98 -3 2 245 3 245
130 -245 129 -245 94 3 94 3 129 245 129 245 0 -248 0 -248 98 3 97 3 0 355 0
355 -131 3 -130 3 -134 -252 c-74 -138 -140 -258 -146 -266 -8 -13 -39 37
-153 251 l-142 266 -130 0 c-95 0 -131 -3 -134 -13z"/>
<path d="M23725 1977 c-3 -6 -4 -167 -3 -357 l3 -345 98 -3 97 -3 0 146 0 145
236 0 235 0 -2 75 -2 75 -233 0 -234 0 0 60 0 60 245 0 245 0 0 80 0 80 -340
0 c-264 0 -342 -3 -345 -13z"/>
<path d="M25300 1630 l0 -361 98 3 c112 3 99 -16 101 156 l1 102 103 0 103 0
107 -130 107 -130 110 0 c61 0 110 3 110 6 0 3 -50 66 -111 141 -87 104 -109
137 -98 144 8 5 17 9 22 9 4 0 27 18 51 40 34 31 47 53 56 91 24 97 -5 192
-70 236 -71 46 -123 53 -417 53 l-273 0 0 -360z m549 186 c27 -25 28 -79 1
-106 -18 -18 -33 -20 -187 -20 l-168 0 3 76 4 76 163 -3 c143 -4 165 -6 184
-23z"/>
<path d="M28810 1630 l0 -361 98 3 97 3 2 205 c2 113 3 221 3 240 0 29 20 -3
128 -205 l127 -240 95 0 95 0 125 237 c69 130 126 235 128 233 2 -1 4 -108 5
-236 l2 -234 98 -3 97 -3 0 361 0 360 -130 0 -130 0 -18 -29 c-9 -16 -73 -135
-142 -265 -69 -130 -127 -236 -130 -236 -3 0 -68 118 -145 263 l-140 262 -132
3 -133 3 0 -361z"/>
<path d="M31780 1910 l0 -80 150 0 150 0 2 -277 3 -278 98 -3 97 -3 0 281 0
280 150 0 150 0 0 80 0 80 -400 0 -400 0 0 -80z"/>
<path d="M33599 1963 c-7 -15 -41 -80 -75 -143 -34 -63 -112 -213 -173 -332
l-113 -218 109 0 109 0 34 70 34 70 195 0 196 0 35 -68 35 -67 108 -3 c59 -1
107 0 107 3 0 5 -98 195 -271 525 l-98 185 -108 3 -109 3 -15 -28z m129 -411
c-67 -1 -123 -1 -125 2 -2 2 24 59 58 127 l62 124 62 -125 63 -125 -120 -3z"/>
<path d="M35050 1630 l0 -361 98 3 97 3 0 355 0 355 -97 3 -98 3 0 -361z"/>
<path d="M36100 1983 c0 -5 64 -167 142 -360 l142 -353 107 0 107 0 47 123
c27 67 67 170 90 230 23 59 44 109 47 112 3 3 45 -99 95 -227 l90 -233 109 0
109 0 142 350 c78 193 142 354 142 358 1 4 -44 6 -100 5 l-101 -3 -98 -244
-97 -243 -73 198 c-40 110 -81 219 -90 244 l-18 45 -108 3 -109 2 -90 -235
c-49 -129 -92 -235 -95 -235 -3 0 -47 106 -98 235 l-94 235 -99 0 c-54 0 -99
-3 -99 -7z"/>
<path d="M38512 1973 c-5 -10 -89 -169 -186 -354 -97 -186 -176 -340 -176
-343 0 -4 48 -5 108 -4 l107 3 33 68 33 67 198 0 197 0 34 -70 34 -70 109 0
c60 0 107 4 105 9 -1 5 -86 167 -187 360 l-183 351 -109 0 c-93 0 -110 -2
-117 -17z m183 -298 l61 -125 -124 0 c-68 0 -122 4 -120 8 16 41 114 242 118
242 3 0 32 -57 65 -125z"/>
<path d="M39960 1630 l0 -360 95 0 95 0 0 248 0 247 241 -247 241 -248 104 0
104 0 0 360 0 360 -95 0 -95 0 0 -246 0 -246 -241 246 -241 246 -104 0 -104 0
0 -360z"/>
</g>
</svg>
