<?xml version="1.0" encoding="utf-8"?>
<!-- Generator: Adobe Illustrator 25.0.0, SVG Export Plug-In . SVG Version: 6.00 Build 0)  -->
<svg version="1.1" xmlns="http://www.w3.org/2000/svg" xmlns:xlink="http://www.w3.org/1999/xlink" x="0px" y="0px"
	 viewBox="0 0 604 162" style="enable-background:new 0 0 604 162;" xml:space="preserve">
<style type="text/css">
	.st0{fill:#25B3F2;}
	.st1{fill:#3CB4E5;}
	.st2{fill:#2994CD;}
	.st3{fill:#FFFFFF;}
	.st4{fill:#808080;}
</style>
<g id="Note">
	<g id="_x5F_">
	</g>
	<g id="E">
	</g>
</g>
<g id="Signature">
	<g>
		<g>
			<path d="M177.85,54v38.23c0,1.41-1.5,1.96-2.75,2.17c-1.25,0.21-3,0.2-4.22-1.01l-15.87-15.86l-15.86-15.86
				c-6.15-6.14-18.01-8.99-29.52-7.07C98.13,56.5,90.4,62.6,90.4,69.77V108h22.5V69.77c0-1.41,1.5-1.96,2.75-2.17
				c1.25-0.21,3-0.2,4.22,1.01l15.86,15.86l15.87,15.86c4.87,4.87,13.33,7.66,22.35,7.66c2.37,0,4.77-0.19,7.16-0.59
				c11.51-1.91,19.24-8.01,19.24-15.18V54H177.85z"/>
			<polygon points="200.35,54 200.35,67.5 226.6,67.5 226.6,108 249.1,108 249.1,67.5 275.35,67.5 275.35,54 			"/>
			<path d="M359.6,54v31.65c0,4.22-5.72,7.65-12.75,7.65h-17.12H312.6c-7.03,0-12.75-3.43-12.75-7.65V54h-24.5v31.65
				c0,12.32,16.71,22.35,37.25,22.35h17.12h17.12c20.54,0,37.25-10.03,37.25-22.35V54H359.6z"/>
			<path d="M485.73,90.67L485.73,90.67c15.94-2.16,27.88-10.72,27.88-20.92v-0.3c0-8.52-11.55-15.45-25.75-15.45H391.1v12.9h96.75
				c2.3,0,4.25,1.17,4.25,2.55v0.3c0,4.71-6.39,8.55-14.25,8.55h-33.43c-13.56,0-26.3,3.17-35.88,8.92L373.9,108h30.41l19.43-11.66
				c5.52-3.31,12.87-5.14,20.68-5.14h17.93l16.8,16.8H513v0C502.75,104.3,493.43,98.38,485.73,90.67z"/>
		</g>
	</g>
</g>
<g id="參考線">
</g>
<g id="註解">
</g>
</svg>
